<?xml version="1.0" encoding="UTF-8" standalone="no"?>
<!-- Created with Inkscape (http://www.inkscape.org/) -->

<svg
   width="210mm"
   height="297mm"
   viewBox="0 0 210 297"
   version="1.1"
   id="svg1"
   xml:space="preserve"
   xmlns="http://www.w3.org/2000/svg"
   xmlns:svg="http://www.w3.org/2000/svg"><defs
     id="defs1" /><g
     id="layer1"><path
       style="fill:#f9f9f9"
       d="m 118.89753,200.53638 c -0.36585,-0.95341 -0.0647,-4.23673 0.66931,-7.29627 2.12616,-8.86285 -1.35934,-21.55799 -7.82187,-28.48936 -3.33762,-3.57974 -4.92047,-3.27503 -4.92047,0.94723 0,1.58913 -1.11121,5.06748 -2.46936,7.72966 -2.31691,4.54153 -2.56856,4.70467 -4.07633,2.64267 -0.883838,-1.20872 -1.606977,-2.73822 -1.606977,-3.39888 0,-1.70916 -2.99403,2.78894 -6.492112,9.75347 -2.292882,4.56503 -2.916701,7.37912 -2.666452,12.02856 0.289314,5.37525 0.05089,6.10954 -2.084767,6.42051 -2.865031,0.41716 -8.75495,-4.27916 -13.388035,-10.67495 -4.836916,-6.67717 -4.726349,-16.50805 0.299588,-26.63732 7.484612,-15.08448 8.370882,-16.01086 10.346431,-10.81478 1.492548,3.9257 2.582884,3.17964 7.276452,-4.97895 3.927115,-6.82631 5.940208,-11.95862 7.288175,-18.58096 0.453163,-2.22632 1.483107,-3.78517 2.500877,-3.78517 2.66653,0 13.66235,11.63757 16.20052,17.14602 2.3999,5.20837 4.35161,5.87186 4.96716,1.68859 0.46466,-3.15787 1.86531,-3.20346 4.90898,-0.15979 4.97568,4.97568 10.10446,14.67713 11.45598,21.6698 2.4081,12.45939 -1.29797,22.13203 -12.13469,31.6709 -5.99911,5.28062 -7.24258,5.75059 -8.25241,3.11902 z"
       id="path1" /></g></svg>
