<?xml version="1.0" encoding="UTF-8" standalone="no"?>
<!-- Created with Inkscape (http://www.inkscape.org/) -->

<svg
   width="210mm"
   height="297mm"
   viewBox="0 0 210 297"
   version="1.1"
   id="svg1"
   xml:space="preserve"
   xmlns="http://www.w3.org/2000/svg"
   xmlns:svg="http://www.w3.org/2000/svg"><defs
     id="defs1" /><g
     id="layer1"><path
       style="fill:#000000"
       d="m 132.06334,162.3202 c 0,-0.55628 -0.13867,-0.57075 -6.53017,-0.68146 -2.61098,-0.0452 -3.51625,-0.15436 -3.51625,-0.42387 0,-0.19962 0.26178,-0.44603 0.58173,-0.54758 1.32936,-0.42193 1.49067,-1.1987 1.38381,-6.66365 -0.10942,-5.5958 -0.31397,-6.35633 -2.05911,-7.65595 -1.03281,-0.76914 -3.42799,-0.80569 -4.54611,-0.0694 -1.52393,1.00356 -1.74017,2.01347 -1.63081,7.61661 0.11588,5.93798 0.28124,6.41588 2.405,6.95064 1.40963,0.35495 1.80381,0.70895 1.32386,1.1889 -0.22211,0.2221 -1.13501,0.22044 -3.21717,-0.006 -2.06195,-0.2241 -3.40641,-0.22799 -4.62472,-0.0134 -2.33436,0.41119 -2.78019,-0.009 -1.30264,-1.2265 l 1.06566,-0.87841 -0.002,-5.07408 c -8.8e-4,-2.79074 -0.13319,-5.54782 -0.29402,-6.12686 -0.42775,-1.54006 -2.00617,-2.82226 -3.47428,-2.82226 -1.56023,0 -2.98312,0.7169 -3.68863,1.85845 -0.52266,0.84567 -0.57861,1.42404 -0.57861,5.98128 0,4.82354 0.0284,5.07725 0.64584,5.7776 0.35521,0.40288 1.16252,0.90732 1.79401,1.12097 0.64642,0.2187 1.19029,0.60367 1.24457,0.88095 0.0885,0.4523 -0.18667,0.47594 -3.37247,0.28959 -2.33314,-0.13647 -4.15031,-0.0869 -5.55018,0.15138 -1.541209,0.26234 -2.637844,0.27671 -4.225978,0.0554 -1.503741,-0.20959 -2.828635,-0.20688 -4.433329,0.009 -1.647896,0.22177 -2.935985,0.21916 -4.600781,-0.009 -1.604966,-0.22028 -2.920406,-0.22933 -4.300959,-0.0296 -1.45417,0.2104 -2.071497,0.19931 -2.296325,-0.0413 -0.220371,-0.2358 -0.200374,-0.36812 0.07058,-0.46701 0.207939,-0.0759 0.724612,-0.43576 1.148163,-0.79972 0.767052,-0.65912 0.770449,-0.67972 0.86076,-5.2186 0.08042,-4.04192 0.02356,-4.73622 -0.503149,-6.14399 -0.817056,-2.18378 -1.910649,-3.17361 -3.695789,-3.34514 -1.896522,-0.18223 -3.346087,0.51558 -4.086706,1.96731 -0.483813,0.94835 -0.559764,1.70167 -0.559764,5.55199 0,6.02428 0.433432,7.06215 3.229207,7.73252 0.86232,0.20677 1.040237,0.67416 0.356498,0.93654 -0.238075,0.0914 -1.626634,0.0258 -3.085687,-0.14573 -1.894174,-0.22265 -3.215562,-0.22392 -4.620596,-0.004 -2.397614,0.37454 -2.989002,0.0396 -1.526207,-0.8645 0.548445,-0.33895 1.074573,-0.81799 1.169174,-1.06451 0.0946,-0.24653 0.172002,-3.18604 0.172002,-6.53226 0,-6.80456 -0.0961,-7.19039 -1.874015,-7.52393 -1.600051,-0.30017 -1.162193,-0.84792 1.228173,-1.5364 1.223511,-0.3524 2.7898,-0.95357 3.480642,-1.33593 0.690842,-0.38235 1.304391,-0.69519 1.363443,-0.69519 0.05905,0 0.107366,0.81806 0.107366,1.81792 0,0.99986 0.08379,1.90171 0.186202,2.00412 0.10241,0.10242 0.697933,-0.27611 1.323382,-0.84117 1.593147,-1.43931 2.721166,-1.83271 5.255032,-1.83271 2.533479,0 3.836786,0.49309 4.848545,1.8344 1.104528,1.46429 1.369503,2.91839 1.556359,8.54082 0.200539,6.03412 0.293643,6.2987 2.417796,6.87067 1.015123,0.27335 1.21225,0.24002 1.748421,-0.29559 0.569923,-0.56934 0.609314,-0.94765 0.692389,-6.64965 0.09899,-6.79405 -0.02051,-7.31671 -1.710893,-7.4834 -0.503991,-0.0497 -0.968734,-0.24997 -1.03276,-0.44505 -0.124358,-0.37889 0.450643,-0.66225 2.512047,-1.23795 0.710425,-0.19841 1.967859,-0.72853 2.794297,-1.17806 0.826439,-0.44952 1.569156,-0.81731 1.650484,-0.81731 0.08133,0 0.148589,3.39066 0.14947,7.53481 0.0017,7.95176 0.182601,9.43227 1.232563,10.08675 1.253554,0.78138 2.121284,0.79809 2.982373,0.0574 l 0.80668,-0.69387 v -6.22159 c 0,-6.19221 -0.003,-6.22418 -0.67764,-6.77031 -0.37271,-0.30179 -0.986259,-0.54872 -1.36345,-0.54872 -0.402208,0 -0.685802,-0.16915 -0.685802,-0.40904 0,-0.25952 0.865632,-0.68705 2.368092,-1.16956 1.30244,-0.41829 2.79526,-1.00923 3.31737,-1.3132 0.52211,-0.30398 1.07107,-0.55268 1.21992,-0.55268 0.14885,0 0.27063,0.83959 0.27063,1.86576 0,1.02617 0.0924,1.86576 0.20543,1.86576 0.11298,0 0.79111,-0.56444 1.50695,-1.25432 1.89,-1.82143 3.84018,-2.31094 6.38785,-1.60338 1.06092,0.29464 2.6592,1.62236 3.27005,2.7165 0.30382,0.54417 0.38188,0.51407 1.61766,-0.62381 2.05844,-1.89537 2.90761,-2.24033 5.52618,-2.2449 2.63406,-0.005 3.86616,0.52598 4.94748,2.13055 1.10748,1.6434 1.31527,2.85884 1.43728,8.40741 l 0.11821,5.37524 0.86087,0.72437 c 0.47347,0.39841 1.16625,0.72437 1.5395,0.72437 0.37325,0 0.77762,0.16016 0.8986,0.35591 0.5002,0.80933 0.61906,-1.59328 0.64643,-13.06667 0.0322,-13.4961 0.0113,-13.66102 -1.80937,-14.26189 -1.45793,-0.48115 -1.28226,-1.0013 0.47454,-1.4051 0.82883,-0.19051 2.24439,-0.72937 3.14569,-1.19746 2.71822,-1.41173 2.52336,-1.98234 2.52336,7.38933 v 8.24042 l 1.21993,-1.17671 c 1.82055,-1.75607 2.70209,-2.10026 5.37919,-2.10026 2.55951,0 3.8147,0.45312 5.28724,1.90867 1.54089,1.5231 2.03729,3.06715 2.01641,6.27199 -0.0234,3.59017 -0.69523,5.49296 -2.72267,7.7113 -2.00862,2.19775 -3.70556,2.89905 -7.0286,2.90475 -2.35575,0.004 -2.76432,-0.0809 -4.44913,-0.92482 l -1.85517,-0.92927 -1.00464,1.14899 c -1.09808,1.25585 -1.43521,1.40567 -1.43521,0.63779 z m 11.71116,-1.33782 c 1.10431,-0.57691 2.25087,-1.86132 2.76917,-3.10209 0.59437,-1.4229 0.57742,-4.91773 -0.033,-6.80789 -0.52622,-1.62932 -2.26886,-3.81047 -3.59042,-4.49387 -1.10086,-0.56928 -3.37495,-0.5773 -4.46091,-0.0157 -1.65087,0.8537 -1.80343,1.40915 -1.80224,6.562 10e-4,5.40511 0.18156,5.9406 2.49436,7.40733 1.51647,0.96172 3.30974,1.13637 4.62307,0.45025 z m -99.532364,1.11398 c -4.883396,-1.37316 -8.042326,-4.73901 -9.395103,-10.01054 -0.664602,-2.58983 -0.392368,-7.71467 0.544569,-10.25159 1.979721,-5.36044 5.521868,-8.76038 10.436248,-10.01727 1.223432,-0.3129 2.946477,-0.56704 3.82899,-0.56476 1.70649,0.004 5.621374,0.9388 8.539186,2.03811 1.546674,0.58273 1.857523,0.6181 2.484235,0.28269 0.393992,-0.21086 0.852998,-0.29892 1.020014,-0.1957 0.193309,0.11947 0.29921,1.80684 0.291406,4.64312 -0.01068,3.87998 -0.07013,4.44403 -0.460315,4.36707 -0.24643,-0.0486 -0.608581,-0.63268 -0.804779,-1.29795 -0.900293,-3.05271 -4.016024,-6.4416 -6.943648,-7.5524 -1.945135,-0.73803 -4.784871,-0.87844 -6.683621,-0.33047 -2.753401,0.79461 -5.185416,3.30457 -6.399322,6.60442 -0.852696,2.31794 -1.031369,8.14014 -0.338653,11.03522 0.96742,4.04314 3.653242,7.9372 6.307414,9.14486 2.05164,0.9335 6.199652,0.53886 8.540839,-0.81257 1.532094,-0.88439 1.976841,-2.10695 1.877925,-5.16222 -0.11294,-3.48849 -0.528984,-4.09397 -3.199333,-4.65612 -1.212778,-0.25531 -1.909179,-0.54324 -1.909179,-0.78936 0,-0.30945 0.945043,-0.38745 4.694064,-0.38745 2.581736,0 5.488022,-0.083 6.458415,-0.18441 1.514532,-0.1583 1.76435,-0.11821 1.76435,0.28319 0,0.26399 -0.441955,0.65226 -1.014973,0.89168 -1.491926,0.62336 -1.855434,1.74905 -1.855434,5.74577 0,1.82061 -0.03377,3.31019 -0.07504,3.31019 -0.04127,0 -1.410925,0.57986 -3.043671,1.28859 -4.716048,2.04709 -7.279843,2.76363 -10.372196,2.89886 -1.900288,0.0831 -3.201435,-0.0142 -4.292386,-0.32096 z m 121.213214,0.182 c -3.78965,-0.97863 -6.12315,-4.44041 -6.12315,-9.08381 0,-2.06707 0.12459,-2.71512 0.81453,-4.23675 1.691,-3.72942 4.07452,-5.37148 7.78129,-5.3607 2.58166,0.008 3.97111,0.5506 5.5628,2.1743 1.44937,1.47853 2.2027,2.98672 2.2027,4.4099 v 1.15959 l -4.37737,0.0614 c -8.12336,0.114 -7.67834,0.0177 -7.67834,1.66102 0,3.39058 3.2817,6.89619 6.44285,6.88246 1.67037,-0.007 3.4401,-0.73284 4.44297,-1.8216 0.7921,-0.85993 1.45693,-0.9846 1.45693,-0.2732 0,0.67064 -2.442,2.87931 -4.13046,3.73579 -1.52747,0.77483 -4.73081,1.12125 -6.39475,0.69156 z m 5.56283,-12.42316 c 1.32828,-1.10237 -0.79544,-4.68189 -3.12219,-5.26242 -1.68698,-0.42091 -3.66023,1.27181 -4.30862,3.69609 -0.28357,1.06023 -0.27242,1.37131 0.0636,1.77625 0.35971,0.43343 0.79323,0.46785 3.70243,0.29392 1.81225,-0.10834 3.46138,-0.33507 3.66473,-0.50384 z m -20.46146,12.07263 c -0.16889,-0.27327 0.63167,-1.08535 1.08978,-1.10547 0.11435,-0.005 0.40896,-0.39792 0.65469,-0.87311 0.38786,-0.75004 0.43615,-2.48747 0.36617,-13.17399 -0.0762,-11.6399 -0.11038,-12.34289 -0.62742,-12.91397 -0.30075,-0.33217 -0.75283,-0.60593 -1.00464,-0.60835 -0.25181,-0.002 -0.65051,-0.12621 -0.886,-0.27509 -0.64412,-0.40722 -0.0787,-0.80544 1.86077,-1.31062 0.9289,-0.24195 2.27825,-0.71822 2.99856,-1.05837 0.7203,-0.34016 1.50586,-0.7078 1.74567,-0.81699 0.38693,-0.17616 0.43541,1.44358 0.43056,14.38495 -0.005,14.3205 0.005,14.59809 0.59123,15.39466 0.36802,0.50032 1.11053,0.96809 1.93752,1.2206 0.96623,0.29503 1.34084,0.55789 1.34084,0.94088 0,0.48682 -0.16275,0.51271 -1.93753,0.30819 -2.40361,-0.27698 -4.91976,-0.2852 -6.88098,-0.0225 -0.92608,0.12406 -1.56785,0.0893 -1.67922,-0.0909 z m -57.644828,-23.6672 c 0.175195,-0.93576 -0.512431,-2.99401 -1.000245,-2.99401 -0.155289,0 -0.367427,0.26807 -0.471416,0.59571 -0.10399,0.32764 -0.264431,0.52036 -0.356537,0.42825 -0.239704,-0.2397 -1.211176,1.31516 -1.21343,1.94213 -0.0027,0.73858 -0.644095,0.44724 -1.106936,-0.50276 -0.326517,-0.67019 -0.324641,-0.96026 0.01193,-1.84457 0.219656,-0.57713 0.562845,-1.04932 0.762641,-1.04932 0.537379,0 1.464915,-1.33323 1.472254,-2.11619 0.0055,-0.58532 0.06953,-0.62858 0.45587,-0.30795 0.247218,0.20517 0.642766,0.7468 0.878997,1.20362 0.320275,0.61935 0.521724,0.75405 0.792098,0.52966 0.272584,-0.22623 0.481901,-0.0507 0.843247,0.70703 0.691202,1.44946 0.597135,2.28722 -0.376383,3.35203 l -0.857041,0.93741 z"
       id="path1" /></g></svg>
